PathFileType	4	(X/Y/Z)	Patient4_TMGait_0pt8_01_right_21.trc.trc
DataRate	CameraRate	NumFrames	NumMarkers	Units	OrigDataRate	OrigDataStartFrame	OrigNumFrames
88.607594936709	88.607594936709	4	33	mm	88.607594936709	36	       141
Frame#	Time	Sacral			L.Shoulder			Chest			R.Shoulder			Neck			R.ASIS			L.ASIS			R.Thigh.Superior			R.Thigh.Lateral			R.Thigh.Inferior			R.Patella			L.Thigh.Superior			L.Thigh.Lateral			L.Thigh.Inferior			L.Patella			L.Shank.Superior			L.Shank.Lateral			L.Shank.Inferior			R.Shank.Superior			R.Shank.Lateral			R.Shank.Inferior			R.Heel			R.Midfoot.Superior			R.Midfoot.Lateral			R.Toe			L.Heel			L.Midfoot.Lateral			L.Midfoot.Superior			L.Toe			L.Elbow			L.Wrist			R.Elbow			R.Wrist			
		X1	Y1	Z1	X2	Y2	Z2	X3	Y3	Z3	X4	Y4	Z4	X5	Y5	Z5	X6	Y6	Z6	X7	Y7	Z7	X8	Y8	Z8	X9	Y9	Z9	X10	Y10	Z10	X11	Y11	Z11	X12	Y12	Z12	X13	Y13	Z13	X14	Y14	Z14	X15	Y15	Z15	X16	Y16	Z16	X17	Y17	Z17	X18	Y18	Z18	X19	Y19	Z19	X20	Y20	Z20	X21	Y21	Z21	X22	Y22	Z22	X23	Y23	Z23	X24	Y24	Z24	X25	Y25	Z25	X26	Y26	Z26	X27	Y27	Z27	X28	Y28	Z28	X29	Y29	Z29	X30	Y30	Z30	X31	Y31	Z31	X32	Y32	Z32	X33	Y33	Z33	

36	23.765000000000	928.456071731017	991.594041831970	480.533677470071	1100.109238563179	1425.903627699130	307.617176238212	1198.978469170979	1356.766814001520	471.915397986475	1105.882913556884	1424.251128535191	643.677183980597	1078.673167050194	1484.230290519725	463.204510438339	1155.767226009010	935.042207897693	604.041053761296	1144.367460354917	949.567245706122	325.857463013925	1225.942824183084	750.539262625258	579.061597716361	1159.595534399407	630.792840355616	634.751765444870	1250.610197722163	591.414993480601	561.040175016077	1265.784939391594	500.656287226332	569.037378266163	1171.610404395541	725.889210690217	349.291613579014	1071.931585237247	617.395149203916	285.879411271635	1153.833304725275	526.026856703105	339.417667580308	1138.491440175707	441.489307151216	336.277727382503	1065.188671239985	388.256024096238	334.237081323336	919.423248788374	354.180472387607	293.949295732769	902.514074623580	227.289074763779	352.487681877424	1239.194437504385	408.903009281377	572.609932553802	1168.502628699091	301.085613835265	628.928319695228	1219.426140179834	209.120724684261	567.709008117750	1093.301420660487	42.687097116230	527.343205504267	1262.702329625737	98.022927274536	571.788694847707	1172.848688540094	37.214308316730	606.482109297770	1380.899259226768	47.358064002305	606.028559326051	711.482773266604	166.143686377199	405.333943404083	761.918708862560	122.993724127900	319.441659877117	868.225098389062	132.485147539360	332.640355363842	944.287488497907	33.459774475954	294.684176195425	1134.327206660840	1084.253954008278	173.552902789456	1385.775547268483	1071.733571180908	210.331481108813	998.678397597662	1093.034886301275	750.118548743013	997.420872131621	835.110928857020	781.021700923171	
37	23.776285714286	928.107230163106	993.640935280164	483.528145819262	1098.662837895646	1427.960100771087	309.790276919360	1198.998791844379	1358.404069881912	473.051710672134	1107.706394310120	1425.791471096893	645.705324718139	1078.738514740849	1486.045493831209	465.602200853206	1155.927923114219	936.959268876797	605.680026658639	1143.433993627384	951.118550650112	327.446220699282	1223.191769129095	749.895524551008	581.705104878567	1154.614923622797	631.271530265716	636.333098842727	1245.048359442676	590.714660280710	562.501702374595	1258.725342654462	499.978676356249	570.149081531293	1175.990122186858	729.411778646891	350.899909640263	1080.427008821426	618.445707425400	286.417297540188	1165.084707640061	528.894716738253	339.819962648076	1150.967874508469	443.246104141178	336.168299986592	1076.140514451083	390.104731647459	334.389663071127	929.126993835353	360.524698298489	294.660450787446	908.611531107159	234.123565154284	353.088070162925	1231.590573315312	408.688334836434	573.741098323014	1160.277099262690	301.146627594304	629.663654193426	1210.930101329256	209.083179176864	568.363993182065	1084.417294493822	42.726631740804	527.557324787487	1254.062051066562	98.350890237687	572.336670339104	1163.978542706021	37.216184940321	606.640213512910	1372.009397328970	47.274840336793	606.190742463423	715.667888744834	180.509653313608	406.395870653383	764.148274065871	135.181836703254	320.308043554679	871.197076487832	139.669293290416	333.319018107412	942.311657656388	34.738464182219	294.987667462433	1127.082835180053	1084.457317646247	178.348841280202	1378.312974209325	1057.878662114333	212.788693187360	1009.555506677309	1091.108641628183	753.511866602613	1020.577916844388	833.137443207078	783.467793334908	
38	23.787571428571	927.571450331665	995.622341090556	486.416945959834	1096.942457058719	1429.892023991054	311.847130234212	1198.847154643107	1359.926924260396	473.994932947324	1109.474147414195	1427.196544527161	647.603939154765	1078.667224036147	1487.763298631175	467.894003487917	1155.890486005634	938.730933773952	607.120217787798	1142.370630196284	952.624414423727	329.033451708321	1220.151285943015	749.217119802705	584.055522601517	1149.459458102471	631.728573365417	637.783560189020	1239.229388649985	589.999309726090	563.772986955405	1251.363589398279	499.330842382243	571.108167914888	1180.044138550077	733.196506519112	352.338498605206	1088.557645929843	619.951170866928	286.798067232334	1175.851772142546	532.323987562722	340.106944186875	1163.164235068992	445.657809461466	336.016162725677	1087.150298663410	392.440770555825	334.478925850470	939.146770957972	366.630329939288	295.362361635278	915.664627397833	240.705023089342	353.744549484660	1223.802324198161	408.505704647101	574.710801487914	1151.980809736154	301.218919908667	630.283965649859	1202.368893193161	209.063385272850	568.913640910254	1075.491687573599	42.808401919531	527.736012280583	1245.365129194390	98.630821068393	572.855027632788	1155.068759675056	37.235771160313	606.777710440247	1363.094494350729	47.070528704255	606.323270034930	721.398312096444	193.276410375241	407.590197176313	768.182835937149	146.312936542717	321.292644240841	875.689245797250	146.726318700736	334.125033620829	942.666633987735	36.724506989208	295.334845417144	1119.892350719474	1084.682007461551	183.048628781438	1370.007792955904	1042.964798971823	215.088655745849	1020.927581039757	1089.288483596237	756.919056443928	1044.554032682483	831.845067804165	785.805296549795	
39	23.798857142857	926.878856416230	997.505088156072	489.192661130313	1094.996625858951	1431.674699912152	313.779079312300	1198.534615604125	1361.318716453584	474.758810915486	1111.166567414194	1428.465562818579	649.364020110836	1078.471265781427	1489.372467008675	470.054491649372	1155.659640460329	940.334455341260	608.380575103081	1141.158505981688	954.083150193872	330.640285122105	1216.905249487679	748.559420136300	586.067034989165	1144.244072256432	632.175737131392	639.106537774867	1233.264941376373	589.286124024844	564.861088949140	1243.826096807413	498.727546354659	571.925149639677	1183.723535314824	737.218171023862	353.625941384688	1096.231800786610	621.905143141195	287.061331096996	1186.052609100833	536.289112619551	340.267228545714	1175.001134394711	448.704911913667	335.771660069058	1098.152174705769	395.224126247331	334.478077473759	949.398873739019	372.317345095448	296.008148443733	923.706905370894	246.794540231425	354.395318361590	1215.945875809564	408.353040839538	575.529312300174	1143.696356387815	301.314581651088	630.804315494446	1193.794406703731	209.055582098512	569.365080548274	1066.521200322844	42.931240110326	527.891490760025	1236.591976525408	98.835275797948	573.328168330025	1146.114761550620	37.273489003159	606.901811732459	1354.151910408559	46.764017684934	606.441318714417	728.642767977941	203.995312873605	408.834235960974	774.067654486182	155.919503603906	322.327635654432	881.806283312695	153.313980375692	334.971407310632	945.615058395213	39.310227537594	295.700048481984	1112.816822661174	1084.889675498296	187.618654735275	1360.717814076287	1027.104677182362	217.227007769918	1032.810374230907	1087.605543599916	760.277419154990	1069.201465885358	831.312772143478	787.999975834865	
